<?xml version="1.0" standalone="no"?>
<!DOCTYPE svg PUBLIC "-//W3C//DTD SVG 20010904//EN"
 "http://www.w3.org/TR/2001/REC-SVG-20010904/DTD/svg10.dtd">
<svg version="1.0" xmlns="http://www.w3.org/2000/svg"
 width="512.000000pt" height="512.000000pt" viewBox="0 0 512.000000 512.000000"
 preserveAspectRatio="xMidYMid meet">

<g transform="translate(0.000000,512.000000) scale(0.100000,-0.100000)"
fill="#000000" stroke="none">
<path d="M1380 2260 l-215 -99 -116 -465 c-64 -256 -119 -478 -122 -494 l-6
-29 197 -83 c108 -45 207 -88 218 -94 22 -11 21 -14 -72 -265 -52 -140 -91
-257 -87 -261 4 -4 293 -107 641 -229 l632 -221 111 0 111 0 632 221 c347 122
635 225 639 229 4 4 -20 81 -53 171 -34 90 -77 205 -95 255 l-33 92 219 92
c120 51 219 96 219 99 -1 3 -56 226 -123 494 l-122 488 -218 101 c-121 55
-223 96 -227 92 -5 -5 -138 -333 -295 -729 -158 -396 -288 -721 -290 -723 -1
-1 -47 175 -101 393 l-99 395 -165 0 -165 0 -99 -397 c-55 -219 -101 -393
-103 -388 -60 163 -581 1449 -588 1451 -5 2 -107 -41 -225 -96z"/>
</g>
</svg>
