<?xml version="1.0" standalone="no"?>
<!DOCTYPE svg PUBLIC "-//W3C//DTD SVG 20010904//EN"
 "http://www.w3.org/TR/2001/REC-SVG-20010904/DTD/svg10.dtd">
<svg version="1.0" xmlns="http://www.w3.org/2000/svg"
 width="68.000000pt" height="68.000000pt" viewBox="0 0 68.000000 68.000000"
 preserveAspectRatio="xMidYMid meet">

<g transform="translate(0.000000,68.000000) scale(0.100000,-0.100000)"
fill="#000000" stroke="none">
<path d="M440 631 c-16 -31 -13 -127 6 -145 8 -9 19 -16 24 -16 4 0 10 -10 13
-22 l6 -22 24 22 c17 16 36 22 69 22 64 0 78 16 78 94 0 35 -5 67 -12 74 -8 8
-46 12 -105 12 -81 0 -94 -2 -103 -19z m195 -71 l0 -65 -50 -3 c-27 -2 -56 -8
-63 -14 -10 -8 -16 -9 -20 -1 -4 6 -16 12 -27 14 -17 4 -21 13 -23 58 -5 82
-5 82 95 79 l88 -3 0 -65z"/>
<path d="M585 600 c-3 -5 -1 -10 4 -10 6 0 11 5 11 10 0 6 -2 10 -4 10 -3 0
-8 -4 -11 -10z"/>
<path d="M490 560 c0 -22 5 -40 10 -40 6 0 10 7 10 15 0 8 7 15 15 15 8 0 15
-7 15 -15 0 -8 5 -15 10 -15 6 0 10 19 10 43 -1 37 -2 40 -14 25 -16 -22 -36
-23 -36 -3 0 8 -4 15 -10 15 -5 0 -10 -18 -10 -40z"/>
<path d="M580 545 c0 -14 5 -25 10 -25 6 0 10 11 10 25 0 14 -4 25 -10 25 -5
0 -10 -11 -10 -25z"/>
<path d="M250 566 c0 -30 -46 -66 -83 -66 -47 0 -119 -41 -131 -74 -8 -20 -6
-30 9 -46 10 -11 22 -20 28 -20 5 0 23 -6 40 -14 18 -8 41 -17 52 -19 20 -4
20 -4 0 -12 -27 -12 -145 -132 -145 -148 0 -35 61 -51 78 -21 5 9 7 25 5 35
-5 19 12 49 28 49 4 0 11 -21 15 -46 3 -25 13 -48 20 -51 8 -3 14 -9 14 -14 0
-5 11 -28 26 -50 21 -35 29 -40 56 -37 26 3 35 12 63 65 18 33 35 77 39 97 4
20 11 36 16 36 15 0 31 -37 24 -54 -15 -39 56 -64 75 -27 13 24 -35 90 -103
141 -27 19 -41 36 -34 38 7 2 27 10 43 17 17 7 39 15 50 17 24 4 43 52 29 75
-14 23 -91 63 -121 63 -27 0 -73 41 -73 66 0 7 -4 14 -10 14 -5 0 -10 -7 -10
-14z m30 -57 c0 -5 -12 -9 -26 -9 -22 0 -24 2 -14 14 12 15 40 11 40 -5z m96
-56 c-2 -16 -7 -45 -11 -65 l-6 -38 -108 0 -108 0 -7 31 c-3 17 -6 47 -6 65
l0 34 126 0 126 0 -6 -27z m-296 -49 c0 -13 -4 -24 -9 -24 -13 0 -24 37 -16
50 10 16 25 1 25 -26z m370 6 c0 -19 -17 -36 -26 -27 -3 2 -2 16 2 31 7 28 24
26 24 -4z m-102 -134 c2 -10 1 -43 -3 -72 l-6 -54 -84 0 -84 0 -6 48 c-3 26
-8 57 -11 69 -5 29 6 32 106 30 74 -2 85 -4 88 -21z m-264 -101 c3 -9 -1 -18
-10 -22 -19 -7 -39 11 -30 26 10 16 33 13 40 -4z m380 0 c3 -9 -1 -18 -10 -22
-19 -7 -39 11 -30 26 10 16 33 13 40 -4z m-176 -107 c-6 -17 -50 -17 -55 0 -3
8 6 12 27 12 21 0 30 -4 28 -12z"/>
<path d="M165 444 c-19 -20 -16 -43 8 -58 34 -22 73 27 47 59 -16 19 -35 19
-55 -1z m25 -14 c0 -5 -5 -10 -11 -10 -5 0 -7 5 -4 10 3 6 8 10 11 10 2 0 4
-4 4 -10z"/>
<path d="M285 444 c-19 -20 -16 -43 8 -58 34 -22 73 27 47 59 -16 19 -35 19
-55 -1z m45 -14 c0 -5 -4 -10 -10 -10 -5 0 -10 5 -10 10 0 6 5 10 10 10 6 0
10 -4 10 -10z"/>
<path d="M210 260 c0 -5 20 -10 45 -10 25 0 45 5 45 10 0 6 -20 10 -45 10 -25
0 -45 -4 -45 -10z"/>
<path d="M210 220 c0 -5 20 -10 45 -10 25 0 45 5 45 10 0 6 -20 10 -45 10 -25
0 -45 -4 -45 -10z"/>
<path d="M210 180 c0 -5 20 -10 45 -10 25 0 45 5 45 10 0 6 -20 10 -45 10 -25
0 -45 -4 -45 -10z"/>
</g>
</svg>
